<svg width="27" height="27" viewBox="0 0 27 27" fill="none" xmlns="http://www.w3.org/2000/svg">
<path fill-rule="evenodd" clip-rule="evenodd" d="M17.6829 17.65C18.4285 17.65 19.0329 18.2544 19.0329 19V23.9929H19.2977C20.0433 23.9929 20.6477 24.5974 20.6477 25.3429C20.6477 26.0885 20.0433 26.6929 19.2977 26.6929H13C12.2544 26.6929 11.65 26.0885 11.65 25.3429C11.65 24.5974 12.2544 23.9929 13 23.9929H13.2648V21.5C13.2648 20.7544 13.8692 20.15 14.6148 20.15C15.3604 20.15 15.9648 20.7544 15.9648 21.5V23.9929H16.3329V19C16.3329 18.2544 16.9373 17.65 17.6829 17.65Z" fill="#F5F5F5"/>
<path d="M12.6762 8.30186C10.5 15.134 6.29775 16.7418 4.27924 17.9611C6.13627 19.5689 11.3536 21.5326 14.7755 17.5684C18.1973 13.6043 14.8014 9.72131 12.6762 8.30186Z" fill="#F5F5F5"/>
<path d="M24.3835 4.45388C24.4481 5.96166 24.2489 6.80979 24.1413 7.04538L25.9983 6.3386C26.2405 6.18154 26.5635 5.47477 25.9983 5.08212L24.3835 4.45388Z" fill="#F5F5F5"/>
<path d="M1.77628 18.0396C2.66442 18.7464 5.27502 20.2385 6.62069 20.8667L1.6148 25.1073C1.58789 25.1335 1.13036 25.5 0.726661 25.5C0.269926 25.5 0.0807401 25.3429 0 24.9503V18.6679C0 18.2909 0.376787 18.092 0.565181 18.0396H1.77628Z" fill="#F5F5F5"/>
<path fill-rule="evenodd" clip-rule="evenodd" d="M1.28166 24.7345C1.28494 24.7316 1.28826 24.7287 1.29162 24.7258L5.71564 20.9781C4.36605 20.2861 2.47815 19.1898 1.60643 18.5396H0.650631C0.643131 18.543 0.635106 18.5468 0.626701 18.5512C0.594376 18.5679 0.564919 18.5875 0.541864 18.6077C0.518854 18.6279 0.508239 18.6434 0.503969 18.6515C0.501052 18.657 0.5 18.6605 0.5 18.6679V24.894C0.512624 24.9428 0.524186 24.9669 0.530232 24.977C0.545859 24.9835 0.598715 25 0.726661 25C0.796939 25 0.919767 24.9607 1.06636 24.878C1.13164 24.8412 1.18854 24.8032 1.22986 24.7736C1.25035 24.7589 1.26596 24.7469 1.27575 24.7392C1.27826 24.7372 1.28022 24.7357 1.28166 24.7345ZM0 24.9503V18.6679C0 18.2909 0.376787 18.092 0.565181 18.0396H1.77628C2.56575 18.6679 4.7162 19.9166 6.12943 20.6276C6.30606 20.7164 6.47118 20.7969 6.62069 20.8667L1.6148 25.1073C1.58789 25.1335 1.13036 25.5 0.726661 25.5C0.269926 25.5 0.0807401 25.3429 0 24.9503Z" fill="#F5F5F5"/>
<path d="M17.2783 16.6261C14.8884 21.2122 10.3077 21.6258 8.31612 21.2594L8.15464 21.495C9.285 21.8614 11.9656 22.5001 13.645 22.1232C15.6635 21.94 19.9911 20.5526 21.4768 16.1549C21.7728 15.3434 22.0581 12.998 20.8308 10.1081C20.8308 9.87247 20.7824 9.47982 21.2345 8.85158C22.0958 8.06627 23.6567 6.10302 22.4456 3.1974C21.1538 0.841485 18.8931 0.370304 17.7627 0.527366C16.5516 0.605895 14.5493 1.10849 13.645 3.11887C13.4027 3.48534 12.9506 4.73659 13.0798 6.49567C18.4409 10.5792 18.1126 14.9508 17.2783 16.6261Z" fill="#F5F5F5"/>
</svg>
