<svg width="27" height="27" viewBox="0 0 27 27" fill="none" xmlns="http://www.w3.org/2000/svg">
<path d="M17.4398 20.317C17.4398 21.8504 17.4398 25.2644 17.4398 25.2644M14.3716 21.2594V25.1073M12.7568 25.3429H19.0546" stroke="#F5F5F5" stroke-width="3" stroke-linecap="round"/>
<path d="M12.6763 8.30186C10.5001 15.134 6.2978 16.7418 4.2793 17.9611C6.13632 19.5689 11.3537 21.5326 14.7755 17.5684C18.1974 13.6043 14.8015 9.72131 12.6763 8.30186Z" fill="#F5F5F5"/>
<path d="M17.2782 16.6261C14.8883 21.2122 10.3076 21.6258 8.31602 21.2594L8.15454 21.495C9.2849 21.8614 11.9655 22.5001 13.6449 22.1232C15.6634 21.94 19.991 20.5526 21.4767 16.1549C21.7727 15.3434 22.058 12.998 20.8307 10.1081C20.8307 9.87247 20.7823 9.47982 21.2344 8.85158C22.0957 8.06627 23.6566 6.10302 22.4455 3.1974C21.1537 0.841485 18.893 0.370303 17.7626 0.527365C16.5515 0.605894 14.5492 1.10849 13.6449 3.11887C13.4027 3.48534 12.9505 4.73659 13.0797 6.49567C18.4408 10.5792 18.1125 14.9508 17.2782 16.6261Z" fill="#F5F5F5"/>
<path d="M24.3836 4.45388C24.4482 5.96166 24.249 6.80979 24.1414 7.04538L25.9984 6.3386C26.2406 6.18154 26.5636 5.47477 25.9984 5.08212L24.3836 4.45388Z" fill="#F5F5F5"/>
<path d="M1.69026 18.2896C2.57869 18.9712 4.78721 20.2435 6.16531 20.9248L1.45321 24.9166C1.44884 24.9203 1.4446 24.9241 1.4405 24.9281C1.44153 24.9271 1.43976 24.9285 1.43542 24.9319C1.41275 24.9496 1.31992 25.022 1.18919 25.0957C1.03179 25.1845 0.862726 25.25 0.726661 25.25C0.520789 25.25 0.425484 25.2134 0.375069 25.1745C0.330373 25.14 0.284242 25.0752 0.25 24.9237V18.6679C0.25 18.572 0.295414 18.4914 0.376904 18.4199C0.449879 18.3558 0.538585 18.312 0.603067 18.2896H1.69026Z" fill="#F5F5F5" stroke="#F5F5F5" stroke-width="0.5" stroke-linecap="round" stroke-linejoin="round"/>
</svg>
